<svg width="70" height="56" viewBox="0 0 70 56" fill="none" xmlns="http://www.w3.org/2000/svg">
<path d="M5 9.5C14.9 9.5 21.125 7.16667 23 6" stroke="black" stroke-width="3"/>
<line x1="10.4953" y1="9.11805" x2="7.49535" y2="47.1181" stroke="black" stroke-width="3"/>
<line y1="-1.5" x2="39.12" y2="-1.5" transform="matrix(0.0787025 0.996898 0.996898 -0.0787025 21 8)" stroke="black" stroke-width="3"/>
<line x1="6" y1="47.5" x2="24" y2="47.5" stroke="black" stroke-width="3"/>
<path d="M64.0791 9.5C54.1791 9.5 47.9541 7.16667 46.0791 6" stroke="black" stroke-width="3"/>
<line y1="-1.5" x2="38.1182" y2="-1.5" transform="matrix(0.0787025 0.996898 0.996898 -0.0787025 60.0791 9)" stroke="black" stroke-width="3"/>
<line x1="49.5744" y1="8.11805" x2="46.4956" y2="47.1167" stroke="black" stroke-width="3"/>
<line y1="-1.5" x2="18" y2="-1.5" transform="matrix(-1 0 0 1 63.0791 49)" stroke="black" stroke-width="3"/>
<path d="M26.5 34.5C29.1667 31.6667 36.2 27.7 43 34.5" stroke="black" stroke-width="3"/>
</svg>
