<svg xmlns="http://www.w3.org/2000/svg" width="70" height="56" viewBox="0 0 70 56">
  <g id="ic_angry" transform="translate(-205 -49.333)">
    <rect id="사각형_2094" data-name="사각형 2094" width="70" height="56" transform="translate(205 49.333)" fill="none"/>
    <g id="그룹_2124" data-name="그룹 2124" transform="translate(208 56)">
      <path id="패스_38696" data-name="패스 38696" d="M217,81.833C217,76.7,222.815,71,230,71s13,5.7,13,10.833" transform="translate(-197.5 -38.5)" fill="none" stroke="#000" stroke-linejoin="round" stroke-width="4"/>
      <g id="그룹_2121" data-name="그룹 2121" transform="translate(47.667)">
        <g id="그룹_2120" data-name="그룹 2120" transform="translate(0 5.347)">
          <path id="패스_38697" data-name="패스 38697" d="M236.639,58.468,230.3,61.64a9.333,9.333,0,0,0-.3,2.314c0,3.59,1.939,6.5,4.333,6.5s4.333-2.91,4.333-6.5A7.623,7.623,0,0,0,236.639,58.468Z" transform="translate(-230 -58.468)" stroke="#000" stroke-linejoin="round" stroke-width="4"/>
        </g>
        <line id="선_598" data-name="선 598" y1="8" x2="17" transform="translate(0.333 0.333)" stroke="#000" stroke-linejoin="round" stroke-width="4"/>
      </g>
      <g id="그룹_2123" data-name="그룹 2123">
        <g id="그룹_2122" data-name="그룹 2122" transform="translate(8.667 5.347)">
          <path id="패스_38698" data-name="패스 38698" d="M214.028,58.468l6.342,3.172a9.331,9.331,0,0,1,.3,2.314c0,3.59-1.939,6.5-4.333,6.5S212,67.544,212,63.954A7.623,7.623,0,0,1,214.028,58.468Z" transform="translate(-212 -58.468)" stroke="#000" stroke-linejoin="round" stroke-width="4"/>
        </g>
        <line id="선_599" data-name="선 599" x1="17" y1="8" transform="translate(0 0.333)" stroke="#000" stroke-linejoin="round" stroke-width="4"/>
      </g>
    </g>
  </g>
</svg>
