<svg xmlns="http://www.w3.org/2000/svg" width="75" height="63" viewBox="0 0 75 63">
  <g id="ic_api2" transform="translate(-1033.921 -994.399)">
    <rect id="사각형_2561" data-name="사각형 2561" width="75" height="63" transform="translate(1033.921 994.399)" fill="none"/>
    <path id="패스_43779" data-name="패스 43779" d="M1137.045,1188.644l-.464,6.109h14.877l-.464-6.109Z" transform="translate(-73.099 -146.245)" fill="#a4c9ff"/>
    <path id="패스_43780" data-name="패스 43780" d="M1130.036,1074.742h.621l-.31-1.153Z" transform="translate(-67.911 -56.86)" fill="#6bdddd"/>
    <path id="패스_43781" data-name="패스 43781" d="M1097.874,1004.4h-47.691a3.286,3.286,0,0,0-3.262,3.3v28.417h54.215V1007.7A3.286,3.286,0,0,0,1097.874,1004.4Zm-26.893,24.888a1.65,1.65,0,0,1-1.436.839,1.626,1.626,0,0,1-.822-.224,1.659,1.659,0,0,1-.77-1.016l-1.211-4.551h-2.393l-1.21,4.551a1.645,1.645,0,0,1-3.028.4,1.681,1.681,0,0,1-.164-1.27l4-15.052a1.647,1.647,0,0,1,3.192,0l4,15.052A1.68,1.68,0,0,1,1070.981,1029.287Zm15.534-2.508a1.673,1.673,0,0,1,0,3.347h-3.431a1.673,1.673,0,0,1,0-3.347h.063v-11.706h-.063a1.625,1.625,0,0,1-.756-.187,4.6,4.6,0,0,1,.222,1.408,4.546,4.546,0,0,1-4.512,4.568h-3.494v7.59a1.653,1.653,0,1,1-3.306,0V1013.4a1.665,1.665,0,0,1,1.653-1.673h5.147a4.477,4.477,0,0,1,3.4,1.573,1.662,1.662,0,0,1,1.648-1.573h3.431a1.673,1.673,0,0,1,0,3.347h-.062v11.706Z" transform="translate(-3.108 -3.107)" fill="#6bdddd"/>
    <path id="패스_43782" data-name="패스 43782" d="M1175.8,1052.24h-3.537v2.443h3.537a1.221,1.221,0,1,0,0-2.443Z" transform="translate(-100.853 -40.275)" fill="#6bdddd"/>
    <path id="패스_43783" data-name="패스 43783" d="M1109.386,1221.579a1.555,1.555,0,0,0,1.553,1.553h23.906a1.553,1.553,0,0,0,0-3.106h-23.906A1.555,1.555,0,0,0,1109.386,1221.579Z" transform="translate(-51.971 -170.625)" fill="#e0ebfc"/>
    <path id="패스_43784" data-name="패스 43784" d="M1046.921,1154.865a3.286,3.286,0,0,0,3.262,3.3h47.691a3.286,3.286,0,0,0,3.262-3.3v-4.3h-54.215Zm22.406-1.443a1.223,1.223,0,0,1,1.214-1.229h6.976a1.223,1.223,0,0,1,1.214,1.229v1.886a1.223,1.223,0,0,1-1.214,1.229h-6.976a1.223,1.223,0,0,1-1.214-1.229Z" transform="translate(-3.108 -116.66)" fill="#e0ebfc"/>
    <path id="패스_43785" data-name="패스 43785" d="M1094.776,1000.4h-47.71a4.175,4.175,0,0,0-4.145,4.195V1038.2a4.175,4.175,0,0,0,4.145,4.195h16.079l-.459,6.109h-3.577a2.446,2.446,0,0,0,0,4.891h23.624a2.446,2.446,0,0,0,0-4.891h-3.577l-.458-6.109h16.079a4.175,4.175,0,0,0,4.145-4.195v-33.611A4.175,4.175,0,0,0,1094.776,1000.4Zm-12.043,49a1.553,1.553,0,0,1,0,3.106h-23.624a1.553,1.553,0,0,1,0-3.106Zm-19.162-.892.459-6.109h13.784l.458,6.109Zm34.469-10.3a3.287,3.287,0,0,1-3.263,3.3h-47.71a3.287,3.287,0,0,1-3.263-3.3v-4.3h54.236Zm0-5.194H1043.8v-28.417a3.287,3.287,0,0,1,3.263-3.3h47.71a3.287,3.287,0,0,1,3.263,3.3Z" transform="translate(0 0)" fill="#3762cc"/>
    <path id="사각형_2538" data-name="사각형 2538" d="M1.279,0H6.456a1.28,1.28,0,0,1,1.28,1.28v0A1.279,1.279,0,0,1,6.456,2.559H1.279A1.279,1.279,0,0,1,0,1.28v0A1.279,1.279,0,0,1,1.279,0Z" transform="translate(1067.053 1036.425)" fill="#a4c9ff"/>
    <path id="패스_43786" data-name="패스 43786" d="M1149.815,1162.213h7.062a1.23,1.23,0,0,0,1.229-1.229V1159.1a1.23,1.23,0,0,0-1.229-1.229h-7.062a1.23,1.23,0,0,0-1.229,1.229v1.886A1.23,1.23,0,0,0,1149.815,1162.213Zm-.336-3.115a.337.337,0,0,1,.336-.336h7.062a.337.337,0,0,1,.337.336v1.886a.337.337,0,0,1-.337.336h-7.062a.337.337,0,0,1-.336-.336Z" transform="translate(-82.425 -122.336)" fill="#3762cc"/>
    <path id="패스_43787" data-name="패스 43787" d="M1115.35,1041.818a.781.781,0,0,0-1.508,0l-4.053,15.053a.78.78,0,0,0,.551.957.788.788,0,0,0,.957-.551l1.314-4.881a.447.447,0,0,1,.431-.33h3.107a.446.446,0,0,1,.431.33l1.314,4.881a.781.781,0,1,0,1.507-.406Zm.493,8.51a.447.447,0,0,1-.354.175H1113.7a.446.446,0,0,1-.431-.562l.893-3.316a.446.446,0,0,1,.862,0l.893,3.316A.448.448,0,0,1,1115.844,1050.328Z" transform="translate(-52.141 -31.729)" fill="#ffea92"/>
    <path id="패스_43788" data-name="패스 43788" d="M1113.1,1038.479a1.673,1.673,0,0,0-3.231,0l-4.053,15.052a1.674,1.674,0,0,0,1.181,2.051,1.672,1.672,0,0,0,2.051-1.181l1.225-4.551h2.423l1.225,4.551a1.673,1.673,0,0,0,1.612,1.239,1.692,1.692,0,0,0,.439-.058,1.673,1.673,0,0,0,1.18-2.051Zm3.113,15.877a.78.78,0,0,1-1.43-.187l-1.314-4.881a.446.446,0,0,0-.431-.33h-3.107a.447.447,0,0,0-.431.33l-1.314,4.881a.788.788,0,0,1-.957.551.78.78,0,0,1-.551-.957l4.053-15.052a.78.78,0,0,1,1.508,0l4.052,15.052A.775.775,0,0,1,1116.217,1054.356Z" transform="translate(-49.027 -28.621)" fill="#3762cc"/>
    <path id="패스_43789" data-name="패스 43789" d="M1127.2,1064.226a.446.446,0,0,0-.862,0l-.893,3.316a.446.446,0,0,0,.431.562h1.786a.446.446,0,0,0,.431-.562Zm-.742,2.986.311-1.153.31,1.153Z" transform="translate(-64.326 -49.33)" fill="#3762cc"/>
    <path id="패스_43790" data-name="패스 43790" d="M1211.255,1042.8h.51a.781.781,0,1,0,0-1.562h-3.474a.781.781,0,1,0,0,1.562h.51a.446.446,0,0,1,.446.446v12.6a.446.446,0,0,1-.446.446h-.51a.781.781,0,1,0,0,1.562h3.474a.781.781,0,1,0,0-1.562h-.51a.446.446,0,0,1-.446-.446v-12.6A.446.446,0,0,1,1211.255,1042.8Z" transform="translate(-128.344 -31.729)" fill="#ffea92"/>
    <path id="패스_43791" data-name="패스 43791" d="M1172.724,1040.587a1.673,1.673,0,0,0,0-3.347h-3.474a1.674,1.674,0,0,0-1.668,1.573,4.555,4.555,0,0,0-3.441-1.573h-5.21a1.675,1.675,0,0,0-1.673,1.673v15.053a1.673,1.673,0,0,0,3.347,0v-7.59h3.537a4.562,4.562,0,0,0,4.344-5.977,1.662,1.662,0,0,0,.766.187h.064v11.706h-.064a1.673,1.673,0,0,0,0,3.347h3.474a1.673,1.673,0,0,0,0-3.347h-.063v-11.706Zm-8.583,4.9h-3.983a.446.446,0,0,0-.446.446v8.036a.781.781,0,0,1-1.562,0v-15.053a.782.782,0,0,1,.781-.781h5.21a3.676,3.676,0,1,1,0,7.351Zm8.073,7.7h.51a.781.781,0,1,1,0,1.562h-3.474a.781.781,0,1,1,0-1.562h.51a.446.446,0,0,0,.446-.446v-12.6a.446.446,0,0,0-.446-.446h-.51a.781.781,0,0,1,0-1.562h3.474a.781.781,0,1,1,0,1.562h-.51a.446.446,0,0,0-.446.446v12.6A.446.446,0,0,0,1172.215,1053.185Z" transform="translate(-89.26 -28.621)" fill="#3762cc"/>
    <path id="패스_43792" data-name="패스 43792" d="M1167.249,1041.24h-5.21a.782.782,0,0,0-.781.781v15.053a.781.781,0,1,0,1.562,0v-8.036a.446.446,0,0,1,.446-.446h3.983a3.676,3.676,0,1,0,0-7.351Zm0,5.79h-3.983a.446.446,0,0,1-.446-.446v-3.335a.446.446,0,0,1,.446-.446h3.983a2.114,2.114,0,1,1,0,4.228Z" transform="translate(-92.311 -31.729)" fill="#ffea92"/>
    <path id="패스_43793" data-name="패스 43793" d="M1172.688,1048.24H1168.7a.446.446,0,0,0-.446.446v3.335a.446.446,0,0,0,.446.446h3.983a2.114,2.114,0,1,0,0-4.228Zm0,3.335h-3.537v-2.443h3.537a1.221,1.221,0,1,1,0,2.443Z" transform="translate(-97.747 -37.167)" fill="#3762cc"/>
  </g>
</svg>
