<svg xmlns="http://www.w3.org/2000/svg" width="75" height="63" viewBox="0 0 75 63">
  <g id="ic_api" transform="translate(-1122.827 -702.088)">
    <rect id="사각형_2559" data-name="사각형 2559" width="75" height="63" transform="translate(1122.827 702.088)" fill="none"/>
    <path id="패스_43814" data-name="패스 43814" d="M1284.477,854.96a23.423,23.423,0,0,1-1.766,1.98,23.159,23.159,0,0,1-1.984,1.762l1.749,1.749,3.745-3.745Z" transform="translate(-114.586 -115.565)" fill="#a4c9ff"/>
    <path id="패스_43815" data-name="패스 43815" d="M1310.6,879.645,1294.76,863.8a.922.922,0,0,0-1.3,0l-3.875,3.874a.921.921,0,0,0,0,1.3l15.844,15.844a2.392,2.392,0,0,0,3.378,0l1.8-1.8A2.391,2.391,0,0,0,1310.6,879.645Z" transform="translate(-121.064 -122.031)" fill="#6bdddd"/>
    <path id="패스_43816" data-name="패스 43816" d="M1190.235,757.919l-15.844-15.844a1.9,1.9,0,0,0-1.9-.473l-2-2a23.014,23.014,0,1,0-5.138,5.132l2,2a1.9,1.9,0,0,0,.473,1.9l15.844,15.844a3.375,3.375,0,0,0,4.768,0l1.8-1.8A3.376,3.376,0,0,0,1190.235,757.919Zm-53.97-16.239a22.038,22.038,0,1,1,31.166,0A21.894,21.894,0,0,1,1136.265,741.68Zm29.877,2.456a23.159,23.159,0,0,0,1.984-1.762,23.423,23.423,0,0,0,1.766-1.98l1.744,1.744-3.745,3.745Zm23.4,17.856-1.8,1.8a2.392,2.392,0,0,1-3.378,0l-15.844-15.844a.921.921,0,0,1,0-1.3l3.875-3.874a.922.922,0,0,1,1.3,0l15.844,15.844A2.391,2.391,0,0,1,1189.54,761.992Z" transform="translate(0 -1)" fill="#3762cc"/>
    <path id="패스_43817" data-name="패스 43817" d="M1176.9,729.112a22.038,22.038,0,1,0-6.455,15.583A21.894,21.894,0,0,0,1176.9,729.112Zm-22.037,19.917h0a19.895,19.895,0,1,1,14.09-5.827A19.791,19.791,0,0,1,1154.865,749.029Z" transform="translate(-3.017 -4.016)" fill="#4671c6"/>
    <path id="패스_43818" data-name="패스 43818" d="M1223.381,772.645h-3.467v2.9h3.467a1.451,1.451,0,1,0,0-2.9Z" transform="translate(-68.712 -53.471)" fill="#e0ebfc"/>
    <path id="패스_43819" data-name="패스 43819" d="M1186.056,787.906h1.554l-.777-2.886Z" transform="translate(-43.17 -62.806)" fill="#e0ebfc"/>
    <path id="패스_43820" data-name="패스 43820" d="M1177.789,725.216a18.965,18.965,0,1,0,5.539,13.395A18.886,18.886,0,0,0,1177.789,725.216Zm-17.775,20.536a1.067,1.067,0,0,1-1.309-.754l-1.144-4.248h-2.7L1153.713,745a1.068,1.068,0,1,1-2.062-.555l3.527-13.1a1.068,1.068,0,0,1,2.063,0l3.527,13.1A1.068,1.068,0,0,1,1160.014,745.753Zm7.2-8.025h-3.467v6.994a1.068,1.068,0,1,1-2.136,0v-13.1a1.068,1.068,0,0,1,1.068-1.068h4.535a3.587,3.587,0,0,1,0,7.175Zm7.47,5.926a1.068,1.068,0,1,1,0,2.136h-3.023a1.068,1.068,0,1,1,0-2.136h.444V732.689h-.444a1.068,1.068,0,1,1,0-2.136h3.023a1.068,1.068,0,1,1,0,2.136h-.444v10.965Z" transform="translate(-12.547 -13.514)" fill="#e0ebfc"/>
    <path id="패스_43821" data-name="패스 43821" d="M1175.469,721.505a19.926,19.926,0,1,0-14.09,34.006h0a19.926,19.926,0,0,0,14.089-34.006Zm-.695,27.485a18.965,18.965,0,1,1,5.539-13.395A18.815,18.815,0,0,1,1174.774,748.99Z" transform="translate(-9.532 -10.498)" fill="#3762cc"/>
    <path id="패스_43822" data-name="패스 43822" d="M1176.138,764.739a1.068,1.068,0,0,0-2.062,0l-3.527,13.1a1.068,1.068,0,1,0,2.062.555l1.144-4.248h2.7l1.144,4.248a1.068,1.068,0,1,0,2.063-.555Zm-1.808,7.272.777-2.886.777,2.886Z" transform="translate(-31.445 -46.911)" fill="#4671c6"/>
    <path id="패스_43823" data-name="패스 43823" d="M1251.872,766.085a1.068,1.068,0,1,0,0-2.136h-3.023a1.068,1.068,0,1,0,0,2.136h.444V777.05h-.444a1.068,1.068,0,1,0,0,2.136h3.023a1.068,1.068,0,1,0,0-2.136h-.444V766.085Z" transform="translate(-89.733 -46.911)" fill="#4671c6"/>
    <path id="패스_43824" data-name="패스 43824" d="M1216.821,763.949h-4.535a1.068,1.068,0,0,0-1.068,1.068v13.1a1.068,1.068,0,1,0,2.136,0v-6.994h3.467a3.587,3.587,0,0,0,0-7.175Zm0,5.039h-3.467v-2.9h3.467a1.451,1.451,0,1,1,0,2.9Z" transform="translate(-62.152 -46.911)" fill="#4671c6"/>
  </g>
</svg>
