<svg id="ic_Coaching" xmlns="http://www.w3.org/2000/svg" width="39" height="39" viewBox="0 0 39 39">
  <rect id="사각형_1924" data-name="사각형 1924" width="39" height="39" transform="translate(0 0)" fill="none"/>
  <path id="합치기_5" data-name="합치기 5" d="M4.817,37.121A4.822,4.822,0,0,1,0,32.3V9.828A4.822,4.822,0,0,1,4.817,5.011H22.754L13.784,13.98a3.211,3.211,0,0,0-.845,1.491l-1.606,6.421a3.231,3.231,0,0,0,.846,3.05,3.206,3.206,0,0,0,3.048.844l6.423-1.606a3.228,3.228,0,0,0,1.491-.843L32.11,14.37V32.3a4.822,4.822,0,0,1-4.816,4.817ZM16.053,16.25,31.307,1a3.406,3.406,0,1,1,4.817,4.817L20.87,21.066l-6.421,1.606Z" transform="translate(0 0)" fill="#457be2"/>
  <path id="패스_38367_-_윤곽선" data-name="패스 38367 - 윤곽선" d="M20,1.879a2.115,2.115,0,0,0-1.5.621L9,12,8,16l4-1,9.5-9.5A2.121,2.121,0,0,0,20,1.879m0-2a4.121,4.121,0,0,1,2.914,7.036l-9.5,9.5a2,2,0,0,1-.929.526l-4,1A2,2,0,0,1,6.06,15.515l1-4a2,2,0,0,1,.526-.929l9.5-9.5A4.094,4.094,0,0,1,20-.121Z" transform="translate(11 2.122)" fill="none"/>
</svg>
