<svg xmlns="http://www.w3.org/2000/svg" width="75" height="63" viewBox="0 0 75 63">
  <g id="ic_key" transform="translate(-1113.979 -817.467)">
    <rect id="사각형_2560" data-name="사각형 2560" width="75" height="63" transform="translate(1113.979 817.467)" fill="none"/>
    <g id="그룹_4578" data-name="그룹 4578" transform="translate(1)">
      <path id="패스_43794" data-name="패스 43794" d="M1142.464,824.453a5.99,5.99,0,0,0-5.982,5.983v2.5h11.965v-2.5A5.99,5.99,0,0,0,1142.464,824.453Z" transform="translate(7.76 1.316)" fill="none"/>
      <path id="패스_43795" data-name="패스 43795" d="M1152.838,833.265a3.55,3.55,0,0,0-1.151-1.151A5.681,5.681,0,0,1,1152.838,833.265Z" transform="translate(12.78 3.846)" fill="none"/>
      <path id="패스_43796" data-name="패스 43796" d="M1130.557,832.114a3.55,3.55,0,0,0-1.151,1.151A5.653,5.653,0,0,1,1130.557,832.114Z" transform="translate(5.424 3.846)" fill="none"/>
      <path id="패스_43797" data-name="패스 43797" d="M1129.578,849.8a3.54,3.54,0,0,0,.923.834,5.69,5.69,0,0,1-.888-.834Z" transform="translate(5.48 9.686)" fill="#e0ebfc"/>
      <path id="패스_43798" data-name="패스 43798" d="M1152.61,849.8h-.036a5.538,5.538,0,0,1-.887.833A3.534,3.534,0,0,0,1152.61,849.8Z" transform="translate(12.78 9.686)" fill="#e0ebfc"/>
      <path id="패스_43799" data-name="패스 43799" d="M1177.221,849.8h-10.739a4.7,4.7,0,0,1-4.162,2.545h-24.776a4.7,4.7,0,0,1-4.161-2.545h-10.738a8.784,8.784,0,1,0,0,17.569h54.576a8.784,8.784,0,0,0,0-17.569Zm-51.1,12.762a3.977,3.977,0,1,1,3.976-3.977A3.983,3.983,0,0,1,1126.121,862.565Zm11.906,0a3.977,3.977,0,1,1,3.976-3.977A3.982,3.982,0,0,1,1138.028,862.565Zm11.905,0a3.977,3.977,0,1,1,3.977-3.977A3.982,3.982,0,0,1,1149.933,862.565Zm11.906,0a3.977,3.977,0,1,1,3.977-3.977A3.982,3.982,0,0,1,1161.839,862.565Zm11.906,0a3.977,3.977,0,1,1,3.977-3.977A3.982,3.982,0,0,1,1173.745,862.565Z" transform="translate(0.291 9.686)" fill="#e0ebfc"/>
      <path id="패스_43800" data-name="패스 43800" d="M1123.774,854.3a2.8,2.8,0,1,0,2.8,2.8A2.807,2.807,0,0,0,1123.774,854.3Z" transform="translate(2.638 11.171)" fill="#6bdddd"/>
      <path id="패스_43801" data-name="패스 43801" d="M1132.725,854.3a2.8,2.8,0,1,0,2.8,2.8A2.807,2.807,0,0,0,1132.725,854.3Z" transform="translate(5.594 11.171)" fill="#6bdddd"/>
      <path id="패스_43802" data-name="패스 43802" d="M1141.675,854.3a2.8,2.8,0,1,0,2.8,2.8A2.806,2.806,0,0,0,1141.675,854.3Z" transform="translate(8.549 11.171)" fill="#6bdddd"/>
      <path id="패스_43803" data-name="패스 43803" d="M1150.626,854.3a2.8,2.8,0,1,0,2.8,2.8A2.806,2.806,0,0,0,1150.626,854.3Z" transform="translate(11.505 11.171)" fill="#6bdddd"/>
      <circle id="타원_333" data-name="타원 333" cx="2.803" cy="2.803" r="2.803" transform="translate(1171.233 865.47)" fill="#6bdddd"/>
      <path id="패스_43804" data-name="패스 43804" d="M1177.512,858.317h-10.3a4.679,4.679,0,0,0,.112-1V838.964a4.721,4.721,0,0,0-4.717-4.715h-1.1v-2.5a11.285,11.285,0,1,0-22.569,0v2.5h-1.1a4.72,4.72,0,0,0-4.715,4.715v18.352a4.672,4.672,0,0,0,.112,1h-10.3a9.957,9.957,0,1,0,0,19.914h54.576a9.957,9.957,0,0,0,0-19.914Zm-37.4-26.565a10.111,10.111,0,1,1,20.223,0v2.5h-2.956v-2.5a7.156,7.156,0,0,0-14.312,0v2.5h-2.955Zm16.094,0v2.5h-11.965v-2.5a5.982,5.982,0,1,1,11.965,0Zm-21.913,7.212a3.51,3.51,0,0,1,.537-1.854,3.55,3.55,0,0,1,1.151-1.151,3.511,3.511,0,0,1,1.854-.537h24.776a3.512,3.512,0,0,1,1.856.537,3.551,3.551,0,0,1,1.151,1.151,3.511,3.511,0,0,1,.537,1.854v18.352a3.5,3.5,0,0,1-.537,1.854c-.083.11-.173.214-.263.318h.036a3.551,3.551,0,0,1-2.779,1.371h-24.776a3.541,3.541,0,0,1-2.777-1.371h.035c-.089-.1-.18-.208-.262-.318a3.5,3.5,0,0,1-.537-1.854Zm43.219,38.094h-54.576a8.784,8.784,0,0,1,0-17.569h10.738a4.7,4.7,0,0,0,4.161,2.545h24.776a4.7,4.7,0,0,0,4.162-2.545h10.739a8.784,8.784,0,0,1,0,17.569Z" fill="#3762cc"/>
      <path id="패스_43805" data-name="패스 43805" d="M1124.065,853.418a3.977,3.977,0,1,0,3.976,3.976A3.982,3.982,0,0,0,1124.065,853.418Zm0,6.78a2.8,2.8,0,1,1,2.8-2.8A2.808,2.808,0,0,1,1124.065,860.2Z" transform="translate(2.347 10.88)" fill="#3762cc"/>
      <path id="패스_43806" data-name="패스 43806" d="M1133.016,853.418a3.977,3.977,0,1,0,3.976,3.976A3.981,3.981,0,0,0,1133.016,853.418Zm0,6.78a2.8,2.8,0,1,1,2.8-2.8A2.808,2.808,0,0,1,1133.016,860.2Z" transform="translate(5.303 10.88)" fill="#3762cc"/>
      <path id="패스_43807" data-name="패스 43807" d="M1141.966,853.418a3.977,3.977,0,1,0,3.977,3.976A3.981,3.981,0,0,0,1141.966,853.418Zm0,6.78a2.8,2.8,0,1,1,2.8-2.8A2.807,2.807,0,0,1,1141.966,860.2Z" transform="translate(8.258 10.88)" fill="#3762cc"/>
      <path id="패스_43808" data-name="패스 43808" d="M1150.917,853.418a3.977,3.977,0,1,0,3.977,3.976A3.981,3.981,0,0,0,1150.917,853.418Zm0,6.78a2.8,2.8,0,1,1,2.8-2.8A2.807,2.807,0,0,1,1150.917,860.2Z" transform="translate(11.213 10.88)" fill="#3762cc"/>
      <path id="패스_43809" data-name="패스 43809" d="M1159.868,853.418a3.977,3.977,0,1,0,3.977,3.976A3.981,3.981,0,0,0,1159.868,853.418Zm0,6.78a2.8,2.8,0,1,1,2.8-2.8A2.808,2.808,0,0,1,1159.868,860.2Z" transform="translate(14.169 10.88)" fill="#3762cc"/>
      <path id="패스_43810" data-name="패스 43810" d="M1136.333,831.461a7.156,7.156,0,0,1,14.312,0v2.5h2.956v-2.5a10.111,10.111,0,1,0-20.223,0v2.5h2.955Z" transform="translate(6.735 0.291)" fill="#4671c6"/>
      <path id="패스_43811" data-name="패스 43811" d="M1129.8,855.777a5.686,5.686,0,0,0,.888.834,3.523,3.523,0,0,0,1.854.537h24.776a3.512,3.512,0,0,0,1.856-.539,5.532,5.532,0,0,0,.887-.833c.09-.1.181-.208.263-.318a3.5,3.5,0,0,0,.537-1.854V835.252a3.511,3.511,0,0,0-.537-1.854,5.684,5.684,0,0,0-1.151-1.151,3.512,3.512,0,0,0-1.856-.537h-24.776a3.511,3.511,0,0,0-1.854.537,5.65,5.65,0,0,0-1.151,1.151,3.509,3.509,0,0,0-.537,1.854V853.6a3.5,3.5,0,0,0,.537,1.854C1129.623,855.569,1129.713,855.673,1129.8,855.777Zm15.112-20.594a5.089,5.089,0,0,1,2.737,9.378v6.377a2.737,2.737,0,0,1-5.475,0v-6.377a5.089,5.089,0,0,1,2.737-9.378Z" transform="translate(5.291 3.712)" fill="#f9a7a7"/>
      <path id="패스_43812" data-name="패스 43812" d="M1140.067,842.558a.588.588,0,0,1,.306.516v6.711a1.564,1.564,0,1,0,3.129,0v-6.711a.588.588,0,0,1,.306-.516,3.916,3.916,0,1,0-3.74,0Z" transform="translate(8.268 4.865)" fill="#a4c9ff"/>
      <path id="패스_43813" data-name="패스 43813" d="M1139.49,843.7v6.377a2.737,2.737,0,1,0,5.475,0V843.7a5.088,5.088,0,1,0-5.475,0Zm2.738-8.206a3.916,3.916,0,0,1,1.87,7.356.588.588,0,0,0-.306.516v6.711a1.564,1.564,0,1,1-3.129,0v-6.711a.588.588,0,0,0-.306-.516,3.916,3.916,0,0,1,1.87-7.356Z" transform="translate(7.978 4.574)" fill="#3762cc"/>
    </g>
  </g>
</svg>
