<svg id="ic_menu_02" xmlns="http://www.w3.org/2000/svg" width="24" height="24" viewBox="0 0 24 24">
  <rect id="사각형_1614" data-name="사각형 1614" width="24" height="24" fill="none"/>
  <g id="ic_menu_04" transform="translate(1 1)">
    <rect id="사각형_1924" data-name="사각형 1924" width="20" height="20" fill="none"/>
    <path id="합치기_5" data-name="합치기 5" d="M2.611,20.121A2.613,2.613,0,0,1,0,17.51V5.327A2.613,2.613,0,0,1,2.611,2.716h9.722L7.472,7.578a1.735,1.735,0,0,0-.458.808l-.87,3.48A1.752,1.752,0,0,0,6.6,13.52a1.73,1.73,0,0,0,1.652.457l3.482-.869a1.742,1.742,0,0,0,.808-.458l4.861-4.861V17.51a2.613,2.613,0,0,1-2.611,2.611ZM8.7,8.808,16.969.541A1.846,1.846,0,0,1,19.58,3.152l-8.267,8.267-3.481.87Z" transform="translate(0 0)" fill="#a2bdf0"/>
    <path id="패스_38367_-_윤곽선" data-name="패스 38367 - 윤곽선" d="M20,1.879a2.115,2.115,0,0,0-1.5.621L9,12,8,16l4-1,9.5-9.5A2.121,2.121,0,0,0,20,1.879m0-2a4.121,4.121,0,0,1,2.914,7.036l-9.5,9.5a2,2,0,0,1-.929.526l-4,1A2,2,0,0,1,6.06,15.515l1-4a2,2,0,0,1,.526-.929l9.5-9.5A4.094,4.094,0,0,1,20-.121Z" transform="translate(-6 2.121)" fill="none"/>
  </g>
</svg>
