<svg id="ic_menu_03" xmlns="http://www.w3.org/2000/svg" xmlns:xlink="http://www.w3.org/1999/xlink" width="24" height="24" viewBox="0 0 24 24">
  <defs>
    <clipPath id="clip-path">
      <rect id="사각형_2073" data-name="사각형 2073" width="20.986" height="19.25" fill="#a2bdf0"/>
    </clipPath>
  </defs>
  <rect id="사각형_1614" data-name="사각형 1614" width="24" height="24" fill="none"/>
  <g id="구성_요소_6_1" data-name="구성 요소 6 – 1" transform="translate(1 1)">
    <rect id="사각형_2074" data-name="사각형 2074" width="22" height="22" fill="none"/>
    <g id="그룹_1772" data-name="그룹 1772" transform="translate(0 1)">
      <g id="그룹_1771" data-name="그룹 1771" clip-path="url(#clip-path)">
        <path id="패스_38448" data-name="패스 38448" d="M3.151,11.675H1.242a.641.641,0,0,0-.641.642v6.292a.642.642,0,0,0,.641.642H3.151a.643.643,0,0,0,.642-.642V12.317a.642.642,0,0,0-.642-.642" transform="translate(0 0)" fill="#a2bdf0"/>
        <path id="패스_38449" data-name="패스 38449" d="M8.686,7.919H6.777a.641.641,0,0,0-.641.642V18.608a.641.641,0,0,0,.641.642H8.686a.642.642,0,0,0,.642-.642V8.561a.642.642,0,0,0-.642-.642" transform="translate(0 0)" fill="#a2bdf0"/>
        <path id="패스_38450" data-name="패스 38450" d="M14.19,9.991H12.281a.641.641,0,0,0-.641.642v7.975a.641.641,0,0,0,.641.642H14.19a.642.642,0,0,0,.642-.642V10.633a.642.642,0,0,0-.642-.642" transform="translate(0 0)" fill="#a2bdf0"/>
        <path id="패스_38451" data-name="패스 38451" d="M19.758,6.171H17.849a.641.641,0,0,0-.641.642v11.8a.641.641,0,0,0,.641.641h1.909a.642.642,0,0,0,.642-.641V6.813a.642.642,0,0,0-.642-.642" transform="translate(0 0)" fill="#a2bdf0"/>
        <path id="패스_38452" data-name="패스 38452" d="M17.39,3.57a2.1,2.1,0,1,0-.6-1.469c0,.064.013.124.019.187l-2,1.219a2.09,2.09,0,0,0-3.184.318l-1.687-.8c0-.038.012-.075.012-.114a2.1,2.1,0,0,0-4.2,0,2.121,2.121,0,0,0,.027.266l-2.376,2a2.079,2.079,0,0,0-1.3-.461A2.109,2.109,0,1,0,4.151,6.368l2.28-1.917a2.074,2.074,0,0,0,2.963-.133l1.875.889a2.095,2.095,0,0,0,4.181-.193,1.974,1.974,0,0,0-.025-.245Zm1.5-2.369a.9.9,0,1,1-.9.9.9.9,0,0,1,.9-.9M2.1,7.711a.9.9,0,1,1,.9-.9.9.9,0,0,1-.9.9m5.747-3.9a.9.9,0,1,1,.9-.9.9.9,0,0,1-.9.9m5.5,2.1a.9.9,0,1,1,.9-.9.9.9,0,0,1-.9.9" transform="translate(0 0)" fill="#a2bdf0"/>
      </g>
    </g>
  </g>
</svg>
