<svg id="ic_menu_04" xmlns="http://www.w3.org/2000/svg" width="24" height="24" viewBox="0 0 24 24">
  <rect id="사각형_1614" data-name="사각형 1614" width="24" height="24" fill="none"/>
  <g id="settings" transform="translate(1 1)">
    <path id="빼기_3" data-name="빼기 3" d="M11.08,22a2,2,0,0,1-2-2v-.09A1.638,1.638,0,0,0,8,18.4a1.648,1.648,0,0,0-1.82.329l-.059.06a2,2,0,1,1-2.831-2.829l.061-.06A1.664,1.664,0,0,0,2.17,13.08H2a2,2,0,1,1,0-4h.09A1.637,1.637,0,0,0,3.6,8,1.643,1.643,0,0,0,3.27,6.18l-.061-.06a2,2,0,0,1,0-2.83A2.015,2.015,0,0,1,4.624,2.7a1.99,1.99,0,0,1,1.416.587l.06.06a1.653,1.653,0,0,0,1.82.33H8A1.647,1.647,0,0,0,9,2.17V2a2,2,0,0,1,4,0v.09A1.651,1.651,0,0,0,14,3.6a1.647,1.647,0,0,0,1.819-.33l.061-.06a2,2,0,1,1,2.83,2.83l-.06.061a1.644,1.644,0,0,0-.33,1.82V8a1.648,1.648,0,0,0,1.51,1H20a2,2,0,1,1,0,4H19.91a1.664,1.664,0,0,0-1.18,2.821l.06.06a2.012,2.012,0,0,1,.587,1.414,2,2,0,0,1-2,2,2.011,2.011,0,0,1-1.415-.586l-.061-.06a1.663,1.663,0,0,0-2.82,1.18V20A2,2,0,0,1,11.08,22ZM11,7.334A3.666,3.666,0,1,0,14.666,11,3.671,3.671,0,0,0,11,7.334Z" fill="#a2bdf0"/>
  </g>
</svg>
