<svg xmlns="http://www.w3.org/2000/svg" width="320" height="58" viewBox="0 0 320 58">
  <g id="logo_2" transform="translate(-272.839 -677.726)">
    <g id="그룹_4765" data-name="그룹 4765" transform="translate(342.135 688.269)">
      <path id="패스_38730" data-name="패스 38730" d="M322.365,697.776l-8.6-13.59H309.11v27.42h4.276V691.453l8.976,14.253,8.979-14.188v20.088h4.276v-27.42H331Z" transform="translate(-309.11 -682.326)" fill="#457be2"/>
      <rect id="사각형_2529" data-name="사각형 2529" width="4.276" height="21.53" transform="translate(31.443 7.751)" fill="#457be2"/>
      <path id="패스_38731" data-name="패스 38731" d="M325.686,684.1a3,3,0,0,0-.917,2.2,2.927,2.927,0,0,0,.927,2.192,3.122,3.122,0,0,0,2.221.851,3.178,3.178,0,0,0,2.256-.849,2.931,2.931,0,0,0,.931-2.194,2.964,2.964,0,0,0-.948-2.21A3.321,3.321,0,0,0,325.686,684.1Z" transform="translate(-294.336 -683.229)" fill="#457be2"/>
      <path id="패스_38732" data-name="패스 38732" d="M341.2,686.8a10.979,10.979,0,0,0-5.173,1.2,8.946,8.946,0,0,0-1.745,1.186v-1.57h-4.276v21.529h4.276V698.262a8.249,8.249,0,0,1,.954-3.968,7.44,7.44,0,0,1,2.56-2.816,6.347,6.347,0,0,1,3.521-1.016,4.484,4.484,0,0,1,3.881,1.827,9.571,9.571,0,0,1,1.442,5.7v11.155h4.276V698.418c0-3.6-.845-6.45-2.515-8.481A8.845,8.845,0,0,0,341.2,686.8Z" transform="translate(-289.393 -679.863)" fill="#457be2"/>
      <path id="패스_38733" data-name="패스 38733" d="M362.156,692.889a10.565,10.565,0,0,0-2.214-1.535,12.52,12.52,0,0,0-11.488.167,11.279,11.279,0,0,0-4.27,4.093,10.982,10.982,0,0,0-1.578,5.768,11.16,11.16,0,0,0,1.6,5.848,11.5,11.5,0,0,0,4.367,4.173,12.411,12.411,0,0,0,6.083,1.524,11.818,11.818,0,0,0,5.393-1.215,9.992,9.992,0,0,0,2.109-1.425v2.1h4.276V683.364h-4.276Zm-.983,12.675a7.172,7.172,0,0,1-2.707,2.734,8.19,8.19,0,0,1-7.838,0,7.275,7.275,0,0,1-2.748-2.738,7.832,7.832,0,0,1-1-3.941,8.1,8.1,0,0,1,1.022-4.044,7.635,7.635,0,0,1,2.758-2.841,7.828,7.828,0,0,1,7.754,0,7.408,7.408,0,0,1,2.736,2.835,8.245,8.245,0,0,1,1,4.05A7.946,7.946,0,0,1,361.173,705.564Z" transform="translate(-277.507 -683.101)" fill="#457be2"/>
      <path id="패스_38734" data-name="패스 38734" d="M373.052,696.976a35.587,35.587,0,0,0-4.989-1.4,36.218,36.218,0,0,1-3.933-1.083,5.525,5.525,0,0,1-2.1-1.291,2.657,2.657,0,0,1-.705-1.982,2.743,2.743,0,0,1,1.613-2.662,9.271,9.271,0,0,1,4.332-1,9.111,9.111,0,0,1,3.195.521,11.239,11.239,0,0,1,2.931,1.728l.843.665,2.159-3.407-.754-.538a14.11,14.11,0,0,0-3.967-2.025,14.945,14.945,0,0,0-4.408-.61,14.757,14.757,0,0,0-6.9,1.574,5.993,5.993,0,0,0-3.319,5.642,6.231,6.231,0,0,0,1.4,4.209,8.382,8.382,0,0,0,3.249,2.3,41.462,41.462,0,0,0,4.666,1.459,36.962,36.962,0,0,1,4.217,1.308,6.288,6.288,0,0,1,2.359,1.619,3.724,3.724,0,0,1,.855,2.6,3.345,3.345,0,0,1-.758,2.254A4.962,4.962,0,0,1,370.9,708.3a8.807,8.807,0,0,1-7.045-.511,9.527,9.527,0,0,1-3.261-2.9l-.571-.8-3.385,2.49.678.8a15.519,15.519,0,0,0,4.608,3.8,12.234,12.234,0,0,0,5.692,1.3,14.148,14.148,0,0,0,4.942-.861,9.018,9.018,0,0,0,3.935-2.775,7.384,7.384,0,0,0,1.578-4.789,6.811,6.811,0,0,0-1.526-4.641A8.792,8.792,0,0,0,373.052,696.976Z" transform="translate(-264.272 -682.61)" fill="#457be2"/>
      <path id="패스_38735" data-name="패스 38735" d="M384.86,699.309a6.907,6.907,0,0,1-1.473,4.781,5.414,5.414,0,0,1-4.239,1.576,5.641,5.641,0,0,1-4.365-1.625,6.7,6.7,0,0,1-1.543-4.732V687.217h-4.276v11.935a9.384,9.384,0,0,0,10.222,10.18,9.853,9.853,0,0,0,7.338-2.67c1.732-1.768,2.61-4.295,2.61-7.509V687.217H384.86Z" transform="translate(-252.64 -679.466)" fill="#457be2"/>
      <path id="패스_38736" data-name="패스 38736" d="M399.841,688.28a12.479,12.479,0,0,0-11.466-.169,10.513,10.513,0,0,0-2.235,1.541v-2.041h-4.276v29.173h4.276v-9.739a9.845,9.845,0,0,0,2.109,1.425,11.81,11.81,0,0,0,5.391,1.215,12.54,12.54,0,0,0,6.106-1.526,11.545,11.545,0,0,0,4.345-4.171,11.16,11.16,0,0,0,1.6-5.848,10.989,10.989,0,0,0-1.58-5.768A11.274,11.274,0,0,0,399.841,688.28Zm-2.157,16.778a8.292,8.292,0,0,1-7.8.049,6.989,6.989,0,0,1-2.738-2.662,7.681,7.681,0,0,1-1.011-3.951,8.26,8.26,0,0,1,1.022-4.05,7.755,7.755,0,0,1,2.8-2.913,7.627,7.627,0,0,1,7.725-.041,7.46,7.46,0,0,1,2.721,2.837,8.235,8.235,0,0,1,1,4.05,7.832,7.832,0,0,1-1,3.941A7.3,7.3,0,0,1,397.684,705.058Z" transform="translate(-240.471 -679.861)" fill="#457be2"/>
      <path id="패스_38737" data-name="패스 38737" d="M413.941,688.28a12.483,12.483,0,0,0-11.468-.169,10.562,10.562,0,0,0-2.235,1.541v-2.041h-4.276v29.173h4.276v-9.739a9.893,9.893,0,0,0,2.109,1.425,11.818,11.818,0,0,0,5.393,1.215,12.54,12.54,0,0,0,6.106-1.526,11.526,11.526,0,0,0,4.344-4.171,11.142,11.142,0,0,0,1.6-5.848,10.987,10.987,0,0,0-1.578-5.768A11.287,11.287,0,0,0,413.941,688.28Zm-2.157,16.778a8.3,8.3,0,0,1-7.8.049,7,7,0,0,1-2.736-2.662,7.663,7.663,0,0,1-1.013-3.951,8.24,8.24,0,0,1,1.024-4.05,7.74,7.74,0,0,1,2.8-2.913,7.624,7.624,0,0,1,7.723-.041,7.451,7.451,0,0,1,2.723,2.837,8.234,8.234,0,0,1,1,4.05,7.831,7.831,0,0,1-1,3.941A7.331,7.331,0,0,1,411.783,705.058Z" transform="translate(-227.17 -679.861)" fill="#457be2"/>
      <path id="패스_38738" data-name="패스 38738" d="M427.276,688.276a13.05,13.05,0,0,0-12.065,0,11.032,11.032,0,0,0-4.276,4.141,11.525,11.525,0,0,0-1.555,5.918,11.361,11.361,0,0,0,1.533,5.838,10.856,10.856,0,0,0,4.264,4.087,13.3,13.3,0,0,0,12.131,0,10.841,10.841,0,0,0,4.283-4.064,11.309,11.309,0,0,0,1.535-5.861,11.543,11.543,0,0,0-1.553-5.918A11.019,11.019,0,0,0,427.276,688.276Zm-2.052,16.8a8.491,8.491,0,0,1-7.923,0,6.785,6.785,0,0,1-2.676-2.719v0a8.337,8.337,0,0,1-.968-4.056,8.485,8.485,0,0,1,.97-4.079,6.871,6.871,0,0,1,2.682-2.758,7.83,7.83,0,0,1,3.967-1,7.664,7.664,0,0,1,3.9,1,7.054,7.054,0,0,1,2.688,2.767,8.936,8.936,0,0,1,.019,8.127A6.825,6.825,0,0,1,425.224,705.075Z" transform="translate(-214.51 -679.86)" fill="#457be2"/>
      <path id="패스_38739" data-name="패스 38739" d="M434.712,686.775a11.027,11.027,0,0,0-5.15,1.183,9.343,9.343,0,0,0-1.846,1.25v-1.574H423.44v21.529h4.276v-11.9a6.787,6.787,0,0,1,.9-3.465,6.661,6.661,0,0,1,2.462-2.455,6.746,6.746,0,0,1,3.481-.906,5.508,5.508,0,0,1,1.281.128l1.077.266.42-3.784-.915-.146A11.069,11.069,0,0,0,434.712,686.775Z" transform="translate(-201.247 -679.883)" fill="#457be2"/>
      <path id="패스_38740" data-name="패스 38740" d="M443.9,707.62l-1,.463c-1.619.744-3.2.795-3.949-.025a2.816,2.816,0,0,1-.581-1.937V693.95h5.947v-3.665h-5.947v-6.237l-4.276,1.714v4.522h-3.343v3.665H434.1v11.9a6.539,6.539,0,0,0,1.675,4.736,6.164,6.164,0,0,0,4.621,1.739,9.2,9.2,0,0,0,3.864-.752l.783-.36Z" transform="translate(-194.342 -682.456)" fill="#457be2"/>
    </g>
    <path id="패스_38741" data-name="패스 38741" d="M301.99,677.726a29,29,0,1,0,29.151,29A29.074,29.074,0,0,0,301.99,677.726ZM289.51,715.148a4.375,4.375,0,1,1,4.4-4.375A4.387,4.387,0,0,1,289.51,715.148Zm14.974-.361a4.38,4.38,0,0,1-6.013-1.4l-5.346-8.586a4.332,4.332,0,0,1,1.413-5.982,4.381,4.381,0,0,1,6.013,1.406L305.9,708.8A4.331,4.331,0,0,1,304.484,714.786Zm12.316-.151a4.38,4.38,0,0,1-6.013-1.4l-5.348-8.586a4.333,4.333,0,0,1,1.413-5.982,4.38,4.38,0,0,1,6.013,1.406l5.348,8.584A4.333,4.333,0,0,1,316.8,714.635Z" transform="translate(0 0)" fill="#457be2"/>
  </g>
</svg>
